#!OML:ASF I:\Actors\actors\Patient Classification 2\Patient 1\Session 1\actor1.ASF
:FULLY-SPECIFIED
:DEGREES
632
root -0.52037 18.7818 5.4823 6.26198 2.16334 -1.16177
lowerback 22.3825 -0.725838 0.76755
upperback 9.52085 -0.774189 -0.191587
thorax -2.11307 -0.353727 -0.459928
lowerneck -22.3339 -1.66361 -1.80523
upperneck 20.9868 -2.74628 4.08416
head 10.5126 -0.888447 1.3414
rclavicle -1.98785e-016 1.98785e-016
rhumerus -54.8454 53.084 -127.724
rradius 116.614
rwrist -8.66115
rhand 0.265164 -25.1243
rfingers 7.12502
rthumb 25.8443 -53.3883
lclavicle -1.98785e-016 1.98785e-016
lhumerus -51.1885 -68.4429 145.606
lradius 121.569
lwrist 36.6041
lhand -7.61072 345.295
lfingers 7.12502
lthumb 18.2834 14.4562
rfemur 1.1267 -1.33148 14.694
rtibia -4.77083e-015
rfoot -15.5645 -14.4479
rtoes -12.2574
lfemur -16.5629 -0.526409 -12.9363
ltibia 27.6393
lfoot -16.2258 4.384
ltoes -57.6572
633
root -0.519617 18.7634 5.47225 6.1293 2.06132 -1.11633
lowerback 22.516 -0.697626 0.755858
upperback 9.57531 -0.741486 -0.233738
thorax -2.11985 -0.336952 -0.50521
lowerneck -22.3548 -1.66742 -1.76008
upperneck 20.8778 -2.7713 4.11779
head 10.4776 -0.892898 1.34125
rclavicle 7.95139e-016 -3.77691e-015
rhumerus -54.8454 53.084 -127.724
rradius 116.614
rwrist -8.66115
rhand 0.265164 -25.1243
rfingers 7.12502
rthumb 25.8443 -53.3883
lclavicle 7.95139e-016 -3.77691e-015
lhumerus -51.5549 -68.3317 145.985
lradius 121.821
lwrist 36.4525
lhand -6.57954 347.477
lfingers 7.12502
lthumb 19.2752 16.5415
rfemur 1.22659 -1.22263 14.6454
rtibia -5.56597e-015
rfoot -15.7199 -14.4029
rtoes -12.6345
lfemur -16.5477 -0.433445 -13.0138
ltibia 27.8671
lfoot -16.5249 4.38411
ltoes -57.6062
634
root -0.518815 18.7458 5.45984 6.05066 1.97123 -1.08812
lowerback 22.5343 -0.70091 0.824588
upperback 9.6103 -0.735201 -0.29802
thorax -2.09219 -0.330681 -0.614579
lowerneck -22.2925 -1.67981 -1.80372
upperneck 20.7624 -2.80136 4.2412
head 10.4282 -0.89688 1.38734
rclavicle 5.76476e-015 -5.56597e-015
rhumerus -54.8454 53.084 -127.724
rradius 116.614
rwrist -8.66115
rhand 0.265164 -25.1243
rfingers 7.12502
rthumb 25.8443 -53.3883
lclavicle 5.76476e-015 -5.56597e-015
lhumerus -51.7658 -68.1963 146.113
lradius 122.209
lwrist 36.3019
lhand -5.91962 348.705
lfingers 7.12502
lthumb 19.9096 17.7056
rfemur 1.24891 -1.12871 14.6202
rtibia -1.59028e-015
rfoot -15.8244 -14.4011
rtoes -12.6019
lfemur -16.6148 -0.351049 -13.0672
ltibia 28.1144
lfoot -16.7424 4.34751
ltoes -57.4399
635
root -0.519876 18.7327 5.4469 5.99528 1.8631 -1.07753
lowerback 22.4839 -0.704041 0.944908
upperback 9.63432 -0.720887 -0.399489
thorax -2.04325 -0.318289 -0.795415
lowerneck -22.2326 -1.70966 -1.91202
upperneck 20.757 -2.87381 4.50374
head 10.4245 -0.906965 1.48838
rclavicle 1.98785e-015 3.18055e-015
rhumerus -54.8454 53.084 -127.724
rradius 116.614
rwrist -8.66115
rhand 0.265164 -25.1243
rfingers 7.12502
rthumb 25.8443 -53.3883
lclavicle 1.98785e-015 3.18055e-015
lhumerus -51.7944 -68.1597 145.966
lradius 122.637
lwrist 36.1777
lhand -5.58921 349.036
lfingers 7.12502
lthumb 20.2272 18.0024
rfemur 1.23298 -1.01726 14.6137
rtibia 4.77083e-015
rfoot -15.8231 -14.4382
rtoes -12.5044
lfemur -16.7081 -0.249716 -13.1044
ltibia 28.3509
lfoot -16.8383 4.39972
ltoes -57.4917
636
root -0.519304 18.7262 5.43721 5.97285 1.68957 -1.04353
lowerback 22.3288 -0.659869 1.03365
upperback 9.67135 -0.653338 -0.491635
thorax -1.92646 -0.280304 -0.961411
lowerneck -22.1934 -1.73985 -1.9653
upperneck 20.8131 -2.93729 4.64706
head 10.4437 -0.922294 1.53947
rclavicle 7.55382e-015 6.36111e-015
rhumerus -54.8454 53.084 -127.724
rradius 116.614
rwrist -8.66115
rhand 0.265164 -25.1243
rfingers 7.12502
rthumb 25.8443 -53.3883
lclavicle 7.55382e-015 6.36111e-015
lhumerus -51.575 -68.355 145.616
lradius 123.088
lwrist 36.0917
lhand -5.34632 349.164
lfingers 7.12502
lthumb 20.4606 18.106
rfemur 1.17426 -0.847415 14.5535
rtibia 2.38542e-015
rfoot -15.7937 -14.4872
rtoes -12.473
lfemur -16.806 -0.172903 -13.1736
ltibia 28.5494
lfoot -16.9085 4.59236
ltoes -57.6183
637
root -0.516762 18.7241 5.42921 5.99893 1.4815 -1.01785
lowerback 22.1434 -0.58658 1.12737
upperback 9.70166 -0.546069 -0.534478
thorax -1.7999 -0.223533 -1.08637
lowerneck -22.2708 -1.80459 -2.09091
upperneck 20.973 -3.00971 4.72084
head 10.5223 -0.953331 1.57706
rclavicle 4.37326e-015 4.96962e-015
rhumerus -54.8454 53.084 -127.724
rradius 116.614
rwrist -8.66115
rhand 0.265164 -25.1243
rfingers 7.12502
rthumb 25.8443 -53.3883
lclavicle 4.37326e-015 4.96962e-015
lhumerus -51.1471 -68.6391 145.229
lradius 123.47
lwrist 36.1801
lhand -5.14521 349.662
lfingers 7.12502
lthumb 20.6539 18.5835
rfemur 1.05087 -0.64797 14.4803
rtibia 2.38542e-015
rfoot -15.7497 -14.5027
rtoes -12.1167
lfemur -16.9086 -0.076475 -13.2236
ltibia 28.6694
lfoot -16.8935 4.6989
ltoes -57.4938
638
root -0.515027 18.7258 5.42416 6.0045 1.17854 -0.979555
lowerback 22.0555 -0.48445 1.21217
upperback 9.69979 -0.404591 -0.613431
thorax -1.75511 -0.149984 -1.25165
lowerneck -22.4852 -1.9269 -2.36529
upperneck 21.3448 -3.1679 4.98066
head 10.7143 -1.00784 1.69525
rclavicle -2.5842e-015 -5.1684e-015
rhumerus -54.8454 53.084 -127.724
rradius 116.614
rwrist -8.66115
rhand 0.265164 -25.1243
rfingers 7.12502
rthumb 25.8443 -53.3883
lclavicle -2.5842e-015 -5.1684e-015
lhumerus -50.7776 -68.7512 144.882
lradius 123.755
lwrist 36.5061
lhand -4.63981 350.631
lfingers 7.12502
lthumb 21.1394 19.4982
rfemur 0.950739 -0.353467 14.3968
rtibia -2.38542e-015
rfoot -15.6171 -14.5548
rtoes -12.1144
lfemur -16.8821 0.133285 -13.2814
ltibia 28.6782
lfoot -16.8392 4.7567
ltoes -57.4493
639
root -0.513354 18.732 5.4262 5.8961 0.683208 -0.91027
lowerback 22.0791 -0.286492 1.22273
upperback 9.69685 -0.156005 -0.733271
thorax -1.76224 -0.0253347 -1.44256
lowerneck -22.6691 -2.11219 -2.73215
upperneck 21.7593 -3.43127 5.41423
head 10.9293 -1.09538 1.87679
rclavicle -7.95139e-016 -1.98785e-015
rhumerus -54.8454 53.084 -127.724
rradius 116.614
rwrist -8.66115
rhand 0.265164 -25.1243
rfingers 7.12502
rthumb 25.8443 -53.3883
lclavicle -7.95139e-016 -1.98785e-015
lhumerus -50.697 -68.7288 144.692
lradius 124.052
lwrist 37.0159
lhand -3.81155 351.74
lfingers 7.12502
lthumb 21.9349 20.5169
rfemur 0.97063 0.140185 14.2755
rtibia 5.56597e-015
rfoot -15.4484 -14.6792
rtoes -12.7432
lfemur -16.5541 0.481538 -13.3768
ltibia 28.5103
lfoot -16.7989 4.85976
ltoes -57.5838
640
root -0.509286 18.7404 5.43418 5.66495 0.0960046 -0.70325
lowerback 22.1813 -0.0119013 1.09741
upperback 9.73169 0.163759 -0.879844
thorax -1.76377 0.131658 -1.60156
lowerneck -22.7701 -2.33094 -3.06517
upperneck 22.0116 -3.75024 5.85515
head 11.0752 -1.20687 2.04562
rclavicle -2.5842e-015 -3.57812e-015
rhumerus -54.8454 53.084 -127.724
rradius 116.614
rwrist -8.66115
rhand 0.265164 -25.1243
rfingers 7.12502
rthumb 25.8443 -53.3883
lclavicle -2.5842e-015 -3.57812e-015
lhumerus -50.9113 -68.5977 144.836
lradius 124.21
lwrist 37.6356
lhand -3.09008 352.423
lfingers 7.12502
lthumb 22.6275 21.1165
rfemur 1.12738 0.723522 13.9921
rtibia 9.54166e-015
rfoot -15.3763 -14.7889
rtoes -13.107
lfemur -15.9792 0.77886 -13.6209
ltibia 28.2237
lfoot -16.777 4.98312
ltoes -57.6301
641
root -0.524011 18.7498 5.46165 5.14541 -0.0194593 -0.286221
lowerback 22.3947 0.186161 0.632075
upperback 9.89592 0.325481 -0.951723
thorax -1.68819 0.202098 -1.45176
lowerneck -22.9012 -2.50945 -3.2624
upperneck 22.1796 -4.00531 6.10625
head 11.1872 -1.30214 2.13157
rclavicle 3.08116e-015 -4.96962e-015
rhumerus -54.8454 53.084 -127.724
rradius 116.614
rwrist -8.66115
rhand 0.265164 -25.1243
rfingers 7.12502
rthumb 25.8443 -53.3883
lclavicle 3.08116e-015 -4.96962e-015
lhumerus -51.3714 -68.4565 145.346
lradius 124.149
lwrist 38.6074
lhand -2.81976 352.542
lfingers 7.12502
lthumb 22.8869 21.2038
rfemur 1.84185 0.857469 13.6195
rtibia 6.36111e-015
rfoot -15.6143 -14.7213
rtoes -12.9794
lfemur -15.0578 0.992934 -13.9751
ltibia 27.894
lfoot -16.6826 4.63546
ltoes -57.6368
642
root -0.516501 18.757 5.47522 5.00773 -0.490024 0.116645
lowerback 22.3392 0.422706 0.32542
upperback 9.93918 0.560843 -1.09878
thorax -1.60812 0.313108 -1.48777
lowerneck -23.0993 -2.60647 -3.33509
upperneck 22.38 -4.13204 6.14101
head 11.3095 -1.35467 2.13818
rclavicle -3.97569e-016 -8.15017e-015
rhumerus -54.8454 53.084 -127.724
rradius 116.614
rwrist -8.66115
rhand 0.265164 -25.1243
rfingers 7.12502
rthumb 25.8443 -53.3883
lclavicle -3.97569e-016 -8.15017e-015
lhumerus -51.999 -68.4647 146.087
lradius 123.991
lwrist 39.8924
lhand -3.06694 352.493
lfingers 7.12502
lthumb 22.6497 21.1841
rfemur 1.95507 1.30248 13.1384
rtibia 2.38542e-015
rfoot -15.7722 -14.7901
rtoes -13.0556
lfemur -14.588 1.31366 -14.4523
ltibia 27.5758
lfoot -16.6 4.64834
ltoes -57.6608
643
root -0.490539 18.7611 5.47212 5.26675 -1.28739 0.371201
lowerback 22.0012 0.624929 0.305339
upperback 9.84356 0.802845 -1.34141
thorax -1.53381 0.436179 -1.78657
lowerneck -23.2707 -2.58636 -3.26755
upperneck 22.5548 -4.11319 6.06329
head 11.4033 -1.3449 2.10335
rclavicle 2.98177e-015 4.37326e-015
rhumerus -54.8454 53.084 -127.724
rradius 116.614
rwrist -8.66115
rhand 0.265164 -25.1243
rfingers 7.12502
rthumb 25.8443 -53.3883
lclavicle 2.98177e-015 4.37326e-015
lhumerus -52.6193 -68.4499 146.738
lradius 123.797
lwrist 40.7292
lhand -3.16386 352.504
lfingers 7.12502
lthumb 22.5567 21.2064
rfemur 1.4357 2.0316 12.6984
rtibia -6.36111e-015
rfoot -15.7545 -14.944
rtoes -13.173
lfemur -14.6305 1.6365 -14.8911
ltibia 27.3247
lfoot -16.5871 5.12141
ltoes -57.7549
644
root -0.483505 18.7626 5.47862 5.31615 -1.34095 0.518051
lowerback 21.7645 0.521452 0.315222
upperback 9.8381 0.668755 -1.44687
thorax -1.42499 0.37321 -1.8711
lowerneck -23.4055 -2.43866 -3.08093
upperneck 22.6757 -3.90845 5.8139
head 11.4525 -1.26521 2.01512
rclavicle 1.59028e-014 -1.47101e-014
rhumerus -54.8454 53.084 -127.724
rradius 116.614
rwrist -8.66115
rhand 0.265164 -25.1243
rfingers 7.12502
rthumb 25.8443 -53.3883
lclavicle 1.59028e-014 -1.47101e-014
lhumerus -52.9841 -68.349 147.121
lradius 123.628
lwrist 41.0727
lhand -2.81561 352.607
lfingers 7.12502
lthumb 22.8909 21.2687
rfemur 1.40801 2.06415 12.5347
rtibia 3.18055e-015
rfoot -15.8021 -14.9051
rtoes -13.0877
lfemur -14.587 1.61125 -15.065
ltibia 27.2163
lfoot -16.5671 5.13667
ltoes -57.8097
645
root -0.480197 18.7593 5.48041 5.35246 -1.23184 0.565249
lowerback 21.6348 0.314283 0.321514
upperback 9.80234 0.403946 -1.45716
thorax -1.40861 0.242485 -1.82539
lowerneck -23.5223 -2.19573 -2.84604
upperneck 22.7998 -3.54598 5.41392
head 11.488 -1.13098 1.88924
rclavicle -9.74045e-015 1.5704e-014
rhumerus -54.8454 53.084 -127.724
rradius 116.614
rwrist -8.66115
rhand 0.265164 -25.1243
rfingers 7.12502
rthumb 25.8443 -53.3883
lclavicle -9.74045e-015 1.5704e-014
lhumerus -53.1611 -68.2181 147.402
lradius 123.537
lwrist 41.3786
lhand -2.41734 352.879
lfingers 7.12502
lthumb 23.2731 21.4924
rfemur 1.4157 1.94765 12.504
rtibia -3.97569e-015
rfoot -15.7933 -14.8758
rtoes -12.8629
lfemur -14.6424 1.45519 -15.1098
ltibia 27.2453
lfoot -16.5937 5.00039
ltoes -57.6082
646
root -0.481757 18.7528 5.47822 5.37173 -0.907795 0.501369
lowerback 21.624 -0.016961 0.379887
upperback 9.72651 -0.00928151 -1.43123
thorax -1.49969 0.0384762 -1.73943
lowerneck -23.5775 -1.87135 -2.50815
upperneck 22.9222 -3.10522 5.00364
head 11.5086 -0.955341 1.75536
rclavicle 2.18663e-015 1.78906e-015
rhumerus -54.8454 53.084 -127.724
rradius 116.614
rwrist -8.66115
rhand 0.265164 -25.1243
rfingers 7.12502
rthumb 25.8443 -53.3883
lclavicle 2.18663e-015 1.78906e-015
lhumerus -53.3259 -68.0932 147.583
lradius 123.495
lwrist 41.6733
lhand -1.92012 353.224
lfingers 7.12502
lthumb 23.75 21.7763
rfemur 1.475 1.63254 12.629
rtibia -8.74653e-015
rfoot -15.8187 -14.8554
rtoes -12.4177
lfemur -14.7886 1.18001 -15.0245
ltibia 27.3736
lfoot -16.6069 4.87999
ltoes -57.431
